<?xml version="1.0" encoding="iso-8859-1"?>
<!-- Generator: Adobe Illustrator 19.0.0, SVG Export Plug-In . SVG Version: 6.00 Build 0)  -->
<svg version="1.1" id="Capa_1" xmlns="http://www.w3.org/2000/svg" xmlns:xlink="http://www.w3.org/1999/xlink" x="0px" y="0px"
	 viewBox="0 0 512.01 512.01" style="enable-background:new 0 0 512.01 512.01;" xml:space="preserve">
<g>
	<g>
		<path d="M455.315,95.272C406.714,34.995,333.433-0.033,256.004,0C122.745,0.177,11.856,102.444,0.917,235.253
			c-0.582,1.141-0.894,2.4-0.913,3.68c0.045,0.775,0.2,1.54,0.459,2.272c-0.281,4.899-0.459,9.826-0.459,14.794
			c-0.042,38.634,8.714,76.771,25.605,111.517c0.106,0.485,0.129,1.008,0.249,1.487c0.44,1.691,1.395,3.202,2.733,4.326
			C78.06,469.319,182.46,523.923,289.519,509.803c107.059-14.12,193.732-93.925,216.623-199.457l0.022-0.095
			C522.612,234.589,503.917,155.548,455.315,95.272z M115.295,63.059c3.091,7.056,5.632,14.339,7.6,21.786
			c2.996,11.9,3.896,21.358-1.458,28.863c-4.402,5.591-9.376,10.706-14.842,15.262l-4.296,3.891
			c-6.583,6.262-13.698,11.939-21.267,16.967c-11.377,7.324-27.761,14.083-41.63,5.466C56.538,118.655,82.641,86.93,115.295,63.059z
			 M27.868,327.085C20.692,304.073,17.051,280.105,17.07,256c0-2.657,0.115-5.286,0.201-7.922
			c10.094,1.28,22.795,4.724,26.299,11.739c2.408,4.817-3.342,23.834-7.542,37.717C33.142,307.078,30.14,317.127,27.868,327.085z
			 M256.004,494.933c-90.778-0.086-173.682-51.558-214.025-132.88c-2.667-16.098,4.188-39.088,10.387-59.579
			c6.654-22.013,11.913-39.4,6.471-50.292c-7.58-15.157-27.975-19.759-40.457-21.16c2.149-20.518,6.969-40.668,14.336-59.938
			c6.428,3.527,13.643,5.372,20.975,5.364c13.118-0.5,25.817-4.76,36.583-12.271c8.399-5.559,16.296-11.841,23.6-18.775l4.125-3.738
			c6.421-5.362,12.232-11.413,17.329-18.046c9.725-13.625,7.538-29.354,4.117-42.942c-2.413-9.407-5.639-18.586-9.643-27.433
			c50.272-31.453,110.487-42.972,168.819-32.296c-13.832,6.463-26.971,14.314-39.214,23.434l-0.796,0.596
			c-7.333,5.504-17.375,13.042-18.738,23.812c-0.629,5.663,1.132,11.332,4.858,15.642c3.015,3.475,6.328,6.68,9.9,9.579
			c5.304,3.825,9.724,8.746,12.958,14.429c-6.376,1.1-12.884,1.218-19.296,0.35c-1.696-0.121-3.108-0.217-4.096-0.242
			c-16.582-1.035-33.228-0.179-49.617,2.55c-9.451,1.471-17.959,6.56-23.725,14.192c-3.512,5.524-4.584,12.254-2.963,18.596
			c2.532,10.869,9.824,20.019,19.854,24.912c6.421,2.25,13.314,2.805,20.013,1.613c2.108-0.208,4.183-0.429,6.112-0.429
			c10.987,1.348,21.412,5.61,30.196,12.346l0.905,0.567c1.25,0.762,2.571,1.613,3.946,2.5c10.083,6.504,23.879,15.4,38.079,10.071
			c6.429-2.808,11.941-7.364,15.908-13.15c1.571-2.088,3.319-4.037,5.225-5.825c4.464-3.886,10.22-5.964,16.137-5.826
			c1.557-0.09,3.116,0.123,4.592,0.625c1.633,3.896-6.763,21.05-19.963,36.933c-6.866,8.581-15.637,15.444-25.617,20.046
			c-7.905,3.573-16.774,4.411-25.208,2.383c-11.244-3.37-22.1-7.92-32.387-13.575c-23.129-11.563-49.346-24.662-75.9-11.379
			c-22.513,10.875-37.372,33.087-38.833,58.045c-3.237,20.721,1.217,60.938,40.975,68.888c43.775,8.754,63.204,16.929,70.196,44.904
			c1.851,7.906,3.217,15.919,4.092,23.992c2.792,22,5.429,42.775,36.25,50.483c9.44,2.704,19.168,4.276,28.979,4.683
			c7.04,0.24,14-1.558,20.042-5.179c10.375-6.567,16.896-18.975,21.15-40.242c7.479-37.383,15.371-63.738,29.583-70.842
			c14.867-7.433,24.037-34.946,17.521-52.567c-4.779-12.913-16.713-18.358-31.942-14.546c-10.358,2.587-11.754-1.175-12.217-2.417
			c-1.765-9.276,1.954-18.741,9.562-24.333c1.132-0.527,2.318-0.928,3.538-1.196c19.942-4.5,65.888,5.442,78.888,31.508
			c17.405,34.806,41.106,42.21,58.948,41.861C458.098,422.666,363.741,494.786,256.004,494.933z M490.581,301.261
			c-19.568,2.272-36.034-8.575-47.744-32.003c-18.175-36.446-74.233-45.9-98.029-40.5c-2.518,0.568-4.962,1.421-7.287,2.542
			c-15.422,9.511-22.729,28.05-17.942,45.525c1.679,4.542,8.975,18.908,32.363,13.054c9.479-2.371,10.979,1.713,11.792,3.908
			c3.692,9.983-2.492,28.054-9.146,31.379c-20.567,10.283-29.758,38.133-38.683,82.758c-3.175,15.871-7.604,25.412-13.546,29.171
			c-6.908,4.375-18.333,2.717-35.75-1.642c-18.754-4.688-20.646-13.879-23.463-36.071c-0.956-8.745-2.446-17.424-4.463-25.987
			c-9.971-39.883-40.858-48.988-83.404-57.496c-33.958-6.792-27.671-48.225-27.392-49.963c0.078-0.464,0.117-0.934,0.117-1.404
			c1.214-18.771,12.46-35.426,29.417-43.567c18.958-9.471,39.2,0.663,60.633,11.375c11.398,6.231,23.432,11.218,35.896,14.875
			c12.043,2.954,24.727,1.809,36.046-3.254c12.594-5.733,23.659-14.355,32.296-25.167c7.158-8.592,29.904-37.929,22.021-54.767
			c-3.849-7.319-11.839-11.476-20.042-10.429c-10.039-0.132-19.775,3.437-27.35,10.025c-2.677,2.441-5.128,5.12-7.321,8.004
			c-2.116,3.347-5.092,6.064-8.617,7.867c-6.129,2.308-15.375-3.65-22.817-8.442c-1.492-0.962-2.921-1.883-4.225-2.683l-0.85-0.529
			c-11.386-8.565-24.96-13.739-39.158-14.925c-2.525,0-5.171,0.246-7.85,0.513c-3.875,0.751-7.868,0.631-11.692-0.35
			c-4.966-2.763-8.545-7.484-9.863-13.012c-0.604-1.855-0.355-3.883,0.679-5.537c3.294-3.707,7.825-6.087,12.746-6.696
			c15.133-2.435,30.49-3.182,45.787-2.225c0.804,0.021,1.954,0.108,3.342,0.208c12.692,0.908,25.717,1.267,32.9-4.987
			c2.869-2.443,4.619-5.951,4.846-9.713c0.796-12.821-10.192-22.346-19.017-30c-2.771-2.247-5.365-4.704-7.758-7.35
			c-1.387-1.729-1.279-2.563-1.246-2.838c0.454-3.6,8-9.263,12.05-12.304l0.796-0.596c17.428-12.954,36.748-23.145,57.279-30.216
			C443.225,63.904,513.733,181.719,490.581,301.261z"/>
	</g>
</g>
<g>
</g>
<g>
</g>
<g>
</g>
<g>
</g>
<g>
</g>
<g>
</g>
<g>
</g>
<g>
</g>
<g>
</g>
<g>
</g>
<g>
</g>
<g>
</g>
<g>
</g>
<g>
</g>
<g>
</g>
</svg>
